<?xml version="1.0" encoding="UTF-8"?>
<svg version="1.1" xmlns="http://www.w3.org/2000/svg" width="800" height="800">
<path d="M0 0 C264 0 528 0 800 0 C800 264 800 528 800 800 C536 800 272 800 0 800 C0 536 0 272 0 0 Z " fill="#091F2F" transform="translate(0,0)"/>
<path d="M0 0 C3.7613704 0.55992379 6.17722469 1.56575951 9.3125 3.6875 C21.26737693 11.06879772 35.47387024 14.61924154 49 18 C49.72074707 18.18111328 50.44149414 18.36222656 51.18408203 18.54882812 C60.52313464 20.76938812 69.80973377 21.15233954 79.37890625 21.1328125 C80.43101791 21.13376923 81.48312958 21.13472595 82.56712341 21.13571167 C84.77643901 21.13638789 86.98575666 21.13457284 89.19506836 21.13037109 C92.55652364 21.12500953 95.91784566 21.13033796 99.27929688 21.13671875 C101.43750029 21.13605797 103.59570363 21.13477682 105.75390625 21.1328125 C106.74789932 21.13483673 107.7418924 21.13686096 108.76600647 21.13894653 C113.90574705 21.12185765 118.91475997 20.89822127 124.0131073 20.23124695 C126.81562892 19.90507203 129.61064137 19.84232916 132.42895508 19.76049805 C151.63520892 19.15645157 171.68984427 17.0693831 190 11 C191.10988281 10.63261719 191.10988281 10.63261719 192.2421875 10.2578125 C195.23543282 9.18793767 198.10981413 7.95001958 201.00390625 6.6328125 C202.07511719 6.15585938 203.14632813 5.67890625 204.25 5.1875 C205.24515625 4.72730469 206.2403125 4.26710937 207.265625 3.79296875 C210 3 210 3 212.02294922 3.73168945 C215.49059589 5.95624174 216.94454267 9.45044943 218.875 13 C219.31263672 13.79728516 219.75027344 14.59457031 220.20117188 15.41601562 C228.43906248 30.93050679 231.73797858 47.09804745 233.5 64.4375 C234.24862329 71.77976684 235.12058455 79.01300081 236.50488281 86.26342773 C239.42904982 102.42565059 240.47281494 118.65681413 239.93408203 135.05249023 C239.91512733 137.21863996 239.91512733 137.21863996 241 140 C241.29723042 142.2277818 241.55715726 144.46061048 241.796875 146.6953125 C241.94920829 148.0568328 242.10256782 149.41823858 242.25683594 150.77954102 C242.33703979 151.48974396 242.41724365 152.1999469 242.49987793 152.93167114 C244.09095196 167.45334658 244.09095196 167.45334658 247.75 181.5625 C250.36014013 189.28915335 250.52897216 195.92435833 250 204 C250.79989804 202.79709989 251.58947824 201.58733705 252.375 200.375 C252.81585937 199.70210937 253.25671875 199.02921875 253.7109375 198.3359375 C257.1831887 192.04379745 257.3742112 186.06085194 257.5625 179.0390625 C257.61772827 177.44401382 257.61772827 177.44401382 257.67407227 175.81674194 C257.79115657 172.41971233 257.89676842 169.02247687 258 165.625 C258.43138693 151.64927289 258.85824626 137.83562522 261 124 C268.99358182 123.90900788 274.32734691 125.01063121 280.6875 130.1875 C291.87724312 143.79664704 290.91674591 156.85327979 290 174 C289.33458272 179.57445757 287.92748395 184.72268188 286 190 C285.68804688 190.85851562 285.37609375 191.71703125 285.0546875 192.6015625 C284.14827277 194.81808928 283.13543096 196.89248078 282 199 C281.58105469 199.79535156 281.16210938 200.59070313 280.73046875 201.41015625 C274.0454652 213.32530032 263.3241195 224.80910066 251 231 C248.32421875 231.29296875 248.32421875 231.29296875 245.6875 231.1875 C244.36298828 231.14689453 244.36298828 231.14689453 243.01171875 231.10546875 C242.34785156 231.07066406 241.68398438 231.03585937 241 231 C240.82210937 232.85625 240.82210937 232.85625 240.640625 234.75 C237.20447646 265.50713381 228.5121719 296.99318347 206.8828125 319.94140625 C202.73253948 324.47915289 202.71963358 327.93382611 202.8125 333.8125 C202.82039551 334.66255615 202.82829102 335.5126123 202.83642578 336.38842773 C202.96719262 360.74361134 202.96719262 360.74361134 214.8125 381.3125 C219.75100748 385.27230554 226.42188649 386.44433539 232.4296875 388.01953125 C236 389 236 389 237 390 C238.0725 390.144375 239.145 390.28875 240.25 390.4375 C244 391 244 391 246.38671875 391.95703125 C249.11016283 393.04396633 251.69306064 393.65395134 254.5625 394.25 C267.28144362 397.09407706 279.68022113 401.27203483 292.1171875 405.13671875 C294.96036606 405.9881313 297.81558589 406.75202237 300.6875 407.5 C304.99581808 408.65589022 309.02159988 410.13712085 313.12890625 411.8671875 C315.88413606 412.95428498 318.66796085 413.85861875 321.48852539 414.75854492 C345.43578964 422.59813785 372.3406055 436.750648 390 455 C390.86625 455.845625 391.7325 456.69125 392.625 457.5625 C393.40875 458.366875 394.1925 459.17125 395 460 C395.56847656 460.52335937 396.13695312 461.04671875 396.72265625 461.5859375 C425.70132194 488.89386501 432.3773495 526.83674396 435.99829102 564.57836914 C436.11487061 565.77324951 436.2314502 566.96812988 436.3515625 568.19921875 C436.45291504 569.27002686 436.55426758 570.34083496 436.65869141 571.4440918 C436.85713126 573.98500453 436.85713126 573.98500453 438 576 C438.25213356 577.73914318 438.45452369 579.48560458 438.63256836 581.23388672 C438.80295876 582.8786348 438.80295876 582.8786348 438.97679138 584.55661011 C439.09659866 585.75222565 439.21640594 586.94784119 439.33984375 588.1796875 C439.46686172 589.41679474 439.5938797 590.65390198 439.7247467 591.92849731 C440.06380275 595.23810931 440.39943525 598.54803312 440.73345947 601.8581543 C441.06614729 605.14661864 441.40344722 608.4346096 441.74023438 611.72265625 C443.18067325 625.81307568 444.59064131 639.90641306 446 654 C220.94 654 -4.12 654 -236 654 C-236 648.86140829 -235.97508303 645.04272213 -235.14453125 640.19140625 C-234.10180593 633.30063057 -233.46163054 626.40940125 -232.88671875 619.46484375 C-232.79100082 618.31129898 -232.6952829 617.15775421 -232.59666443 615.96925354 C-232.39642478 613.54399384 -232.19678818 611.11868428 -231.99771118 608.69332886 C-230.14778864 586.29570784 -227.85727963 564.05735429 -224.54345703 541.83032227 C-224.06597159 538.46497224 -223.64813733 535.10112409 -223.2552948 531.72540283 C-222.45568086 524.90711982 -221.42290076 518.2909343 -219.5 511.6875 C-219.11859863 510.37446899 -219.11859863 510.37446899 -218.72949219 509.03491211 C-211.2592382 484.86094409 -195.84126003 465.27352917 -176 450 C-175.37512695 449.51515137 -174.75025391 449.03030273 -174.10644531 448.53076172 C-155.10764082 433.91945093 -134.22026923 423.20937193 -111.75 415 C-109.96166748 414.34318237 -109.96166748 414.34318237 -108.13720703 413.6730957 C-89.60960166 406.89916884 -70.92608159 401.2114591 -51.82397461 396.31201172 C-44.16863376 394.33820511 -36.57105551 392.19550866 -29.00097656 389.91625977 C-25.20461459 388.79813751 -21.64393364 387.89794596 -17.6953125 387.5546875 C-11.18766967 386.57785316 -7.50732752 382.00506003 -3.42578125 377.11328125 C4.26896821 366.09107256 4.2593894 350.91276902 4.5 338 C4.58121094 336.13214844 4.58121094 336.13214844 4.6640625 334.2265625 C4.9071269 327.68683363 4.9071269 327.68683363 2.56225586 321.77514648 C0.79243426 320.04148739 -1.05602272 318.53252037 -3 317 C-11.80959277 305.98438071 -21.37882954 290.74898738 -24 276.6875 C-24.63983931 273.55648306 -25.41269892 270.54728677 -26.375 267.5 C-27.81726125 262.81265092 -28.99517198 258.08265651 -30.125 253.3125 C-30.29563965 252.59964844 -30.4662793 251.88679687 -30.64208984 251.15234375 C-32.29906237 244.05621466 -33.12777289 237.28305461 -33 230 C-33.58265625 230.0928125 -34.1653125 230.185625 -34.765625 230.28125 C-43.40325157 231.04179574 -48.40267554 227.17402108 -55 222 C-55.79535156 221.39929688 -56.59070313 220.79859375 -57.41015625 220.1796875 C-71.47053155 208.72308541 -80.34356918 190.97575095 -82.7890625 173.13476562 C-83.23133932 168.6587604 -83.32783517 164.1827575 -83.375 159.6875 C-83.38901855 158.76831787 -83.40303711 157.84913574 -83.41748047 156.90209961 C-83.33891777 145.75123216 -79.55438678 136.7086753 -71.75 128.6875 C-64.81935858 124.4346064 -59.07244062 122.75979985 -51 123 C-50.96132813 124.67449219 -50.96132813 124.67449219 -50.921875 126.3828125 C-50.3843081 142.93449748 -48.29166054 159.29406883 -42.23828125 174.79296875 C-40.18995598 180.09793735 -38.61995708 185.5518762 -37 191 C-35.26597232 185.72290152 -34.6836218 181.07513354 -34.62109375 175.5390625 C-34.59560204 174.35405655 -34.59560204 174.35405655 -34.56959534 173.14511108 C-34.51687591 170.63848716 -34.47639809 168.13187326 -34.4375 165.625 C-34.39322636 163.12535404 -34.34620302 160.62581979 -34.29469299 158.12631226 C-34.26333849 156.57807927 -34.23627676 155.02975055 -34.21446228 153.48135376 C-34.1288652 148.92863694 -33.7772529 144.47356325 -33.21009827 139.95492554 C-32.94284952 137.46822533 -32.9997035 135.01761829 -33.04174805 132.51928711 C-33.12378427 125.11813913 -32.65910673 117.91205989 -31.8125 110.5625 C-31.68157959 109.40435791 -31.55065918 108.24621582 -31.41577148 107.05297852 C-30.10826071 96.02386247 -28.22659558 85.11852103 -26.2578125 74.19140625 C-25.39989429 69.39604702 -24.62549992 64.59889141 -23.9296875 59.77734375 C-23.76138428 58.615979 -23.59308105 57.45461426 -23.41967773 56.25805664 C-23.11001854 54.08542505 -22.80927724 51.91149326 -22.51977539 49.73608398 C-19.93111036 31.70950858 -10.96838414 14.37122621 0 0 Z " fill="#20374A" transform="translate(295,146)"/>
<path d="M0 0 C3.7613704 0.55992379 6.17722469 1.56575951 9.3125 3.6875 C21.26737693 11.06879772 35.47387024 14.61924154 49 18 C49.72074707 18.18111328 50.44149414 18.36222656 51.18408203 18.54882812 C60.52313464 20.76938812 69.80973377 21.15233954 79.37890625 21.1328125 C80.43101791 21.13376923 81.48312958 21.13472595 82.56712341 21.13571167 C84.77643901 21.13638789 86.98575666 21.13457284 89.19506836 21.13037109 C92.55652364 21.12500953 95.91784566 21.13033796 99.27929688 21.13671875 C101.43750029 21.13605797 103.59570363 21.13477682 105.75390625 21.1328125 C106.74789932 21.13483673 107.7418924 21.13686096 108.76600647 21.13894653 C113.90574705 21.12185765 118.91475997 20.89822127 124.0131073 20.23124695 C126.81562892 19.90507203 129.61064137 19.84232916 132.42895508 19.76049805 C151.63520892 19.15645157 171.68984427 17.0693831 190 11 C191.10988281 10.63261719 191.10988281 10.63261719 192.2421875 10.2578125 C195.23543282 9.18793767 198.10981413 7.95001958 201.00390625 6.6328125 C202.07511719 6.15585938 203.14632813 5.67890625 204.25 5.1875 C205.24515625 4.72730469 206.2403125 4.26710937 207.265625 3.79296875 C210 3 210 3 212.02294922 3.73168945 C215.49059589 5.95624174 216.94454267 9.45044943 218.875 13 C219.31263672 13.79728516 219.75027344 14.59457031 220.20117188 15.41601562 C228.43906248 30.93050679 231.73797858 47.09804745 233.5 64.4375 C234.24862329 71.77976684 235.12058455 79.01300081 236.50488281 86.26342773 C239.42904982 102.42565059 240.47281494 118.65681413 239.93408203 135.05249023 C239.91512733 137.21863996 239.91512733 137.21863996 241 140 C241.29723042 142.2277818 241.55715726 144.46061048 241.796875 146.6953125 C241.94920829 148.0568328 242.10256782 149.41823858 242.25683594 150.77954102 C242.33703979 151.48974396 242.41724365 152.1999469 242.49987793 152.93167114 C244.09095196 167.45334658 244.09095196 167.45334658 247.75 181.5625 C250.36014013 189.28915335 250.52897216 195.92435833 250 204 C250.79989804 202.79709989 251.58947824 201.58733705 252.375 200.375 C252.81585937 199.70210937 253.25671875 199.02921875 253.7109375 198.3359375 C257.1831887 192.04379745 257.3742112 186.06085194 257.5625 179.0390625 C257.61772827 177.44401382 257.61772827 177.44401382 257.67407227 175.81674194 C257.79115657 172.41971233 257.89676842 169.02247687 258 165.625 C258.43138693 151.64927289 258.85824626 137.83562522 261 124 C268.99358182 123.90900788 274.32734691 125.01063121 280.6875 130.1875 C291.87724312 143.79664704 290.91674591 156.85327979 290 174 C289.33458272 179.57445757 287.92748395 184.72268188 286 190 C285.53207031 191.28777344 285.53207031 191.28777344 285.0546875 192.6015625 C284.14827277 194.81808928 283.13543096 196.89248078 282 199 C281.58105469 199.79535156 281.16210938 200.59070313 280.73046875 201.41015625 C274.0454652 213.32530032 263.3241195 224.80910066 251 231 C248.32421875 231.29296875 248.32421875 231.29296875 245.6875 231.1875 C244.36298828 231.14689453 244.36298828 231.14689453 243.01171875 231.10546875 C242.34785156 231.07066406 241.68398438 231.03585937 241 231 C240.82210937 232.85625 240.82210937 232.85625 240.640625 234.75 C237.20447646 265.50713381 228.5121719 296.99318347 206.8828125 319.94140625 C202.73253948 324.47915289 202.71963358 327.93382611 202.8125 333.8125 C202.82039551 334.66255615 202.82829102 335.5126123 202.83642578 336.38842773 C202.76206571 360.17201103 202.76206571 360.17201103 214.171875 380.18359375 C216.07122768 381.85731411 217.99119594 383.46025679 220 385 C218.45747686 398.66234785 211.59675266 409.49429813 202 419 C200.7315625 420.3303125 200.7315625 420.3303125 199.4375 421.6875 C198.633125 422.450625 197.82875 423.21375 197 424 C196.41863281 424.55300781 195.83726562 425.10601563 195.23828125 425.67578125 C191.25133393 429.33374667 187.30339605 432.21464723 182.49609375 434.6953125 C180.74731582 435.60938422 179.0324442 436.5899383 177.34765625 437.6171875 C141.04057065 459.0865548 89.94315555 456.76596085 50.30908203 447.10961914 C42.33531008 445.00251661 35.25785695 441.90128991 28 438 C27.33097656 437.65420898 26.66195312 437.30841797 25.97265625 436.95214844 C16.95378185 432.28735819 9.1155751 427.37407592 2 420 C1.41863281 419.40445312 0.83726562 418.80890625 0.23828125 418.1953125 C-3.11739995 414.52688519 -5.53202248 410.58052313 -7.83984375 406.1875 C-8.87912969 404.22790362 -10.00968022 402.37755773 -11.1875 400.5 C-13.31327302 396.39505899 -14.2201467 392.52520137 -15 388 C-14.00419922 387.1646875 -14.00419922 387.1646875 -12.98828125 386.3125 C-1.61666249 376.48476525 2.5576605 367.00461175 4 352 C4.28978867 347.33328782 4.41289851 342.67444663 4.5 338 C4.58121094 336.13214844 4.58121094 336.13214844 4.6640625 334.2265625 C4.9071269 327.68683363 4.9071269 327.68683363 2.56225586 321.77514648 C0.79243426 320.04148739 -1.05602272 318.53252037 -3 317 C-11.80959277 305.98438071 -21.37882954 290.74898738 -24 276.6875 C-24.63983931 273.55648306 -25.41269892 270.54728677 -26.375 267.5 C-27.81726125 262.81265092 -28.99517198 258.08265651 -30.125 253.3125 C-30.29563965 252.59964844 -30.4662793 251.88679687 -30.64208984 251.15234375 C-32.29906237 244.05621466 -33.12777289 237.28305461 -33 230 C-33.58265625 230.0928125 -34.1653125 230.185625 -34.765625 230.28125 C-43.40325157 231.04179574 -48.40267554 227.17402108 -55 222 C-56.19302734 221.09894531 -56.19302734 221.09894531 -57.41015625 220.1796875 C-71.47053155 208.72308541 -80.34356918 190.97575095 -82.7890625 173.13476562 C-83.23133932 168.6587604 -83.32783517 164.1827575 -83.375 159.6875 C-83.38901855 158.76831787 -83.40303711 157.84913574 -83.41748047 156.90209961 C-83.33891777 145.75123216 -79.55438678 136.7086753 -71.75 128.6875 C-64.81935858 124.4346064 -59.07244062 122.75979985 -51 123 C-50.97421875 124.11632812 -50.9484375 125.23265625 -50.921875 126.3828125 C-50.3843081 142.93449748 -48.29166054 159.29406883 -42.23828125 174.79296875 C-40.18995598 180.09793735 -38.61995708 185.5518762 -37 191 C-35.26597232 185.72290152 -34.6836218 181.07513354 -34.62109375 175.5390625 C-34.59560204 174.35405655 -34.59560204 174.35405655 -34.56959534 173.14511108 C-34.51687591 170.63848716 -34.47639809 168.13187326 -34.4375 165.625 C-34.39322636 163.12535404 -34.34620302 160.62581979 -34.29469299 158.12631226 C-34.26333849 156.57807927 -34.23627676 155.02975055 -34.21446228 153.48135376 C-34.1288652 148.92863694 -33.7772529 144.47356325 -33.21009827 139.95492554 C-32.94284952 137.46822533 -32.9997035 135.01761829 -33.04174805 132.51928711 C-33.12378427 125.11813913 -32.65910673 117.91205989 -31.8125 110.5625 C-31.68157959 109.40435791 -31.55065918 108.24621582 -31.41577148 107.05297852 C-30.10826071 96.02386247 -28.22659558 85.11852103 -26.2578125 74.19140625 C-25.39989429 69.39604702 -24.62549992 64.59889141 -23.9296875 59.77734375 C-23.76138428 58.615979 -23.59308105 57.45461426 -23.41967773 56.25805664 C-23.11001854 54.08542505 -22.80927724 51.91149326 -22.51977539 49.73608398 C-19.93111036 31.70950858 -10.96838414 14.37122621 0 0 Z " fill="#D29F75" transform="translate(295,146)"/>
<path d="M0 0 C0.8657666 0.19255371 1.7315332 0.38510742 2.62353516 0.58349609 C13.488373 3.0715793 23.81319105 6.43849417 34 11 C35.21091309 11.53584717 35.21091309 11.53584717 36.44628906 12.08251953 C53.81273916 19.8350528 68.3936623 28.70383717 82 42 C82.96292969 42.88751953 82.96292969 42.88751953 83.9453125 43.79296875 C96.69094431 55.79757545 106.37680638 71.9184211 113 88 C113.41894531 88.93328125 113.83789062 89.8665625 114.26953125 90.828125 C118.53058836 100.86928677 120.23900209 111.28814354 122 122 C122.18006592 123.03326416 122.18006592 123.03326416 122.36376953 124.08740234 C126.24902484 146.53618748 124.77300432 172.90769057 119 195 C118.80325972 197.16414313 118.6392679 199.33139984 118.5 201.5 C118.26746518 205.12089932 118.0259536 208.51175775 117 212 C119.31 211.67 121.62 211.34 124 211 C121 213 121 213 117 213 C117.01160156 213.81984375 117.02320313 214.6396875 117.03515625 215.484375 C117.04869141 217.10085938 117.04869141 217.10085938 117.0625 218.75 C117.07410156 219.81734375 117.08570313 220.8846875 117.09765625 221.984375 C117 225 117 225 116.50750732 226.88513184 C115.93793755 229.25862463 115.83497595 231.41352108 115.78222656 233.85351562 C115.75839905 234.8155188 115.73457153 235.77752197 115.71002197 236.76867676 C115.68712097 237.80407593 115.66421997 238.8394751 115.640625 239.90625 C115.57666309 242.11722084 115.51152043 244.32815778 115.4453125 246.5390625 C115.34457778 250.01000943 115.25041341 253.48051445 115.17675781 256.95214844 C114.60011189 283.14085992 114.60011189 283.14085992 109 291 C106.83300781 292.78710938 106.83300781 292.78710938 105 294 C105.05800781 293.04222656 105.11601563 292.08445312 105.17578125 291.09765625 C105.48498652 283.56759843 105.06942823 277.05350821 102.6875 269.875 C100.46697404 263.15818517 99.12670796 256.57611966 98.1875 249.5625 C98.0639917 248.66321777 97.9404834 247.76393555 97.81323242 246.83740234 C97.06244902 240.86749003 96.86177123 235.01335552 97 229 C96.34 228.67 95.68 228.34 95 228 C95 223.71 95 219.42 95 215 C93.68 214.34 92.36 213.68 91 213 C92.65 213 94.3 213 96 213 C94.9673797 200.96182121 93.45688078 189.07919417 91.53222656 177.15112305 C90.25801003 169.09894601 89.3245221 161.04681704 88.5 152.9375 C86.49809989 133.92215056 82.17725943 116.91036028 72.8125 100.125 C72.47959961 99.52341064 72.14669922 98.92182129 71.80371094 98.30200195 C69.73780351 94.70673525 69.73780351 94.70673525 66 93 C63.25958684 93.87997503 63.25958684 93.87997503 60.3125 95.25 C59.23226563 95.71792969 58.15203125 96.18585938 57.0390625 96.66796875 C56.03617187 97.10753906 55.03328125 97.54710937 54 98 C51.36361901 99.11616896 48.71808735 100.10028468 46 101 C44.61167969 101.46019531 44.61167969 101.46019531 43.1953125 101.9296875 C24.89962493 107.38036578 5.2595365 109.27181391 -13.765625 109.82421875 C-16.5656514 109.90904603 -19.29129734 110.13897749 -22.06835938 110.50048828 C-27.42953603 111.1110458 -32.7493548 111.16187527 -38.140625 111.16796875 C-39.70668488 111.17296135 -39.70668488 111.17296135 -41.30438232 111.17805481 C-43.50288455 111.18309216 -45.70139435 111.18546413 -47.89990234 111.18530273 C-51.22636809 111.1874845 -54.5524992 111.2056618 -57.87890625 111.22460938 C-68.44296246 111.2527568 -78.62891137 111.21001243 -89 109 C-90.26714844 108.76539063 -91.53429687 108.53078125 -92.83984375 108.2890625 C-108.87367527 104.85179723 -124.04321125 100.83442548 -137.625 91.35546875 C-140.12324138 89.66954842 -140.12324138 89.66954842 -144 90 C-145.70041403 92.11106858 -147.05742884 94.06729156 -148.4375 96.375 C-148.83219482 97.01405273 -149.22688965 97.65310547 -149.63354492 98.31152344 C-158.93175542 113.56051214 -164.32599099 128.99985809 -166.66430664 146.65649414 C-167.44866027 152.45912542 -168.3704349 158.22367248 -169.41796875 163.984375 C-173.03447973 183.95756978 -175.52523026 203.75089191 -177 224 C-176.34 224.33 -175.68 224.66 -175 225 C-175 225.66 -175 226.32 -175 227 C-175.66 227 -176.32 227 -177 227 C-177.00586624 227.556306 -177.01173248 228.112612 -177.01777649 228.68577576 C-177.08203887 234.51048665 -177.1665405 240.33466169 -177.26245117 246.15893555 C-177.29556998 248.32845973 -177.32364193 250.49806738 -177.34643555 252.66772461 C-177.38022212 255.79837389 -177.43254978 258.92826726 -177.48828125 262.05859375 C-177.49467117 263.01833603 -177.5010611 263.97807831 -177.50764465 264.96690369 C-177.64034969 271.13665806 -178.69234406 276.27265053 -181 282 C-181.33 282 -181.66 282 -182 282 C-182.07476562 281.46375 -182.14953125 280.9275 -182.2265625 280.375 C-183.18448138 274.66505217 -184.84370871 269.4958359 -186.9375 264.125 C-189.5024851 257.50381334 -191.58070507 250.97428372 -193 244 C-193.30744141 242.53433594 -193.30744141 242.53433594 -193.62109375 241.0390625 C-195.3850835 231.37969792 -195.18583775 221.77713033 -195 212 C-197.31 211.67 -199.62 211.34 -202 211 C-201.01 210.01 -201.01 210.01 -200 209 C-196.46428571 209.53571429 -196.46428571 209.53571429 -195 211 C-195.19335938 210.15824219 -195.38671875 209.31648437 -195.5859375 208.44921875 C-203.4124816 171.13752586 -204.83269337 122.3541556 -189 87 C-188.7309082 86.38688965 -188.46181641 85.7737793 -188.18457031 85.14208984 C-183.52731656 74.67247817 -177.568871 65.73388628 -170.43115234 56.79394531 C-169.13148666 55.16481815 -167.85537 53.51697373 -166.58203125 51.8671875 C-145.10011323 24.56804212 -102.15125462 1.80401231 -67.84155273 -2.97827148 C-45.23941023 -5.67309576 -22.2001396 -4.97679659 0 0 Z " fill="#282627" transform="translate(439,57)"/>
<path d="M0 0 C3.7613704 0.55992379 6.17722469 1.56575951 9.3125 3.6875 C21.26737693 11.06879772 35.47387024 14.61924154 49 18 C49.72074707 18.18111328 50.44149414 18.36222656 51.18408203 18.54882812 C60.52313464 20.76938812 69.80973377 21.15233954 79.37890625 21.1328125 C80.43101791 21.13376923 81.48312958 21.13472595 82.56712341 21.13571167 C84.77643901 21.13638789 86.98575666 21.13457284 89.19506836 21.13037109 C92.55652364 21.12500953 95.91784566 21.13033796 99.27929688 21.13671875 C101.43750029 21.13605797 103.59570363 21.13477682 105.75390625 21.1328125 C106.74789932 21.13483673 107.7418924 21.13686096 108.76600647 21.13894653 C113.90574705 21.12185765 118.91475997 20.89822127 124.0131073 20.23124695 C126.81562892 19.90507203 129.61064137 19.84232916 132.42895508 19.76049805 C151.63520892 19.15645157 171.68984427 17.0693831 190 11 C191.10988281 10.63261719 191.10988281 10.63261719 192.2421875 10.2578125 C195.23543282 9.18793767 198.10981413 7.95001958 201.00390625 6.6328125 C202.07511719 6.15585938 203.14632812 5.67890625 204.25 5.1875 C205.24515625 4.72730469 206.2403125 4.26710937 207.265625 3.79296875 C210 3 210 3 212.02294922 3.73168945 C215.49059589 5.95624174 216.94454267 9.45044943 218.875 13 C219.31263672 13.79728516 219.75027344 14.59457031 220.20117188 15.41601562 C228.43906248 30.93050679 231.73797858 47.09804745 233.5 64.4375 C234.24685815 71.76245498 235.12074814 78.9738656 236.50488281 86.20629883 C237.4399625 91.48249059 238.01782002 96.80288164 238.625 102.125 C238.7590625 103.24003906 238.893125 104.35507813 239.03125 105.50390625 C239.74846182 111.71730256 240.14544083 117.74604429 240 124 C229.17839607 124.77667014 229.17839607 124.77667014 225.25 122.1875 C223 119 223 119 221.61845398 116.3400116 C218.87743926 111.64171158 216.8084722 108.55388655 211.47158813 106.91934204 C207.08268466 106.32120913 202.69110591 106.33489916 198.26953125 106.36328125 C196.63055772 106.34313231 194.99161326 106.32047928 193.35270691 106.29545593 C189.9231608 106.25678186 186.49673358 106.26015367 183.06713867 106.29125977 C179.5692359 106.31898476 176.08140688 106.28451931 172.5847168 106.1887207 C152.63937273 104.68663299 152.63937273 104.68663299 134.88037109 111.50537109 C131.9331229 114.7359936 129.80642202 118.18242997 127.92782593 122.11849976 C126.62888764 124.75256358 124.99816793 126.85956108 123 129 C117.92436835 130.69187722 112.5432817 130.30407658 107.23095703 130.35009766 C105.83039739 130.36665888 104.42992234 130.39395225 103.02978516 130.43212891 C101.00118605 130.48708507 98.97455703 130.50879305 96.9453125 130.5234375 C95.73375488 130.54325684 94.52219727 130.56307617 93.27392578 130.58349609 C89.08671302 129.83722924 87.70221636 128.19637027 85 125 C84.319375 124.319375 83.63875 123.63875 82.9375 122.9375 C81.59960922 121.59960922 80.26241284 120.26102379 78.92578125 118.921875 C77.35579135 117.35506966 75.77342077 115.80067809 74.1875 114.25 C72 112 72 112 70.79347229 109.90065002 C69.07168765 107.70157886 69.07168765 107.70157886 65.93516541 107.4315033 C64.67515213 107.40117508 63.41513885 107.37084686 62.11694336 107.33959961 C61.42055756 107.3181337 60.72417175 107.29666779 60.00668335 107.27455139 C57.70094345 107.2110027 55.39629093 107.17889259 53.08984375 107.15234375 C52.29969942 107.13978609 51.50955509 107.12722843 50.695467 107.11429024 C46.50829054 107.04844883 42.32165971 107.00647451 38.1340332 106.98413086 C33.82675221 106.95669917 29.52531574 106.85043268 25.2199316 106.7250433 C21.89355692 106.64256977 18.56855318 106.61900253 15.24124336 106.61084175 C13.65545299 106.59697549 12.06968706 106.56152361 10.48490715 106.50324821 C1.94321752 106.03366507 1.94321752 106.03366507 -5.65848923 109.31196976 C-9.03332007 112.83984538 -11.50102611 116.82828652 -14 121 C-16 123 -16 123 -19.6953125 123.1953125 C-21.17200108 123.182009 -22.64862358 123.15814835 -24.125 123.125 C-24.87910156 123.11597656 -25.63320313 123.10695313 -26.41015625 123.09765625 C-28.27357254 123.0740687 -30.13682593 123.03819719 -32 123 C-32.4792552 107.90346119 -29.5872697 93.12027184 -26.96044922 78.31762695 C-25.86702246 72.13420664 -24.82309217 65.9534914 -23.92578125 59.73828125 C-23.75804199 58.58255615 -23.59030273 57.42683105 -23.41748047 56.23608398 C-23.10838472 54.07162762 -22.80849808 51.90582594 -22.52001953 49.73852539 C-19.93185681 31.71098786 -10.96891006 14.37191529 0 0 Z " fill="#D6A47A" transform="translate(295,146)"/>
<path d="M0 0 C1.90931053 -0.01049126 1.90931053 -0.01049126 3.85719299 -0.02119446 C4.91403793 -0.03674629 4.91403793 -0.03674629 5.99223328 -0.0526123 C8.31703757 -0.07967635 10.63995431 -0.07002339 12.96485901 -0.05757141 C14.58384731 -0.06348088 16.20283123 -0.07072783 17.82180786 -0.07925415 C21.21388017 -0.09113394 24.60529632 -0.08442901 27.99732971 -0.06513977 C32.34020447 -0.04226434 36.68112122 -0.06901512 41.02380276 -0.11020184 C44.36711884 -0.13580404 47.70996802 -0.13319345 51.05334663 -0.12230873 C52.65410705 -0.1208236 54.25490352 -0.12849424 55.85557365 -0.14555931 C58.09689603 -0.16557385 60.3347781 -0.14711492 62.57594299 -0.11885071 C64.48644691 -0.11621468 64.48644691 -0.11621468 66.43554688 -0.11352539 C71.10399802 0.94020555 72.04999062 2.78373494 74.78126526 6.64164734 C76.42614819 8.32981667 78.09464068 9.99518049 79.78126526 11.64164734 C80.97010631 12.82780477 82.15753057 14.01538337 83.34376526 15.20414734 C84.18101135 16.04139343 84.18101135 16.04139343 85.03517151 16.89555359 C86.78126526 18.64164734 86.78126526 18.64164734 88.46681213 20.71977234 C91.58846674 23.3119311 93.53649832 23.14393102 97.55860901 23.13774109 C98.87667542 23.13838562 100.19474182 23.13903015 101.55274963 23.13969421 C102.23683899 23.12930115 102.92092834 23.11890808 103.62574768 23.10820007 C105.70899919 23.0792829 107.78969678 23.08758761 109.87306213 23.10063171 C118.35782622 23.2543762 118.35782622 23.2543762 125.78126526 19.64164734 C127.55608326 17.56455564 129.18210732 15.53048818 130.78126526 13.32914734 C131.61335311 12.20712887 132.44668375 11.08603096 133.28126526 9.96586609 C133.82267151 9.22469543 133.82267151 9.22469543 134.37501526 8.46855164 C134.83907776 7.86567322 135.30314026 7.2627948 135.78126526 6.64164734 C136.83514938 5.1256192 136.83514938 5.1256192 137.9103241 3.57896423 C140.09934878 0.9778666 140.66249333 0.66895628 144.182724 -0.14044189 C145.48287445 -0.15426407 146.7830249 -0.16808624 148.12257385 -0.18232727 C149.20407967 -0.20532646 149.20407967 -0.20532646 150.30743408 -0.22879028 C152.68229135 -0.27036777 155.05452567 -0.26761961 157.42970276 -0.26069641 C159.0873155 -0.27236501 160.74491931 -0.28537063 162.4025116 -0.2996521 C165.8744363 -0.32201488 169.34544583 -0.3211855 172.81739807 -0.30537415 C177.25607572 -0.28799944 181.69099338 -0.33874842 186.1290493 -0.40840816 C189.5523092 -0.45272287 192.97467071 -0.45522262 196.39816666 -0.44587898 C198.03361581 -0.44741401 199.66911728 -0.46304245 201.30428696 -0.49331474 C214.04227636 -0.70018318 214.04227636 -0.70018318 218.3162384 2.59767151 C220.12792668 4.87753357 221.49379384 7.03601868 222.78126526 9.64164734 C224.9617528 13.95265139 224.9617528 13.95265139 228.84767151 16.41508484 C231.1564604 16.93998248 233.43710678 17.31354421 235.78126526 17.64164734 C237.4495321 17.96687748 239.11666206 18.29815779 240.78126526 18.64164734 C240.76386292 19.90621765 240.76386292 19.90621765 240.74610901 21.19633484 C240.73708557 22.29203796 240.72806213 23.38774109 240.71876526 24.51664734 C240.70136292 26.15246765 240.70136292 26.15246765 240.68360901 27.82133484 C240.58382223 30.59342279 240.58382223 30.59342279 241.78126526 32.64164734 C241.21536682 33.11215515 240.64946838 33.58266296 240.06642151 34.06742859 C239.33294495 34.69004578 238.59946838 35.31266296 237.84376526 35.95414734 C236.7474176 36.87647156 236.7474176 36.87647156 235.62892151 37.81742859 C232.89936793 40.5123578 232.64267401 43.18753528 232.31642151 46.85258484 C232.23980286 47.67903503 232.1631842 48.50548523 232.08424377 49.35697937 C232.00488586 50.2346698 231.92552795 51.11236023 231.84376526 52.01664734 C228.75950566 84.11249322 228.75950566 84.11249322 219.40626526 94.20414734 C208.34211379 102.92563409 193.08085781 102.84627651 179.73780823 102.88188171 C177.55008058 102.89156407 175.36330386 102.92265117 173.17579651 102.95414734 C161.20916493 103.04383519 147.01894088 102.04017216 137.62501526 93.73539734 C124.266236 79.57907902 120.01951144 58.4859864 119.08985901 39.58305359 C118.9371051 38.6220575 118.9371051 38.6220575 118.78126526 37.64164734 C115.15197116 35.82700029 110.90218639 36.41406485 106.90626526 36.39164734 C105.99489807 36.37102234 105.08353088 36.35039734 104.14454651 36.32914734 C103.26411682 36.32399109 102.38368713 36.31883484 101.47657776 36.31352234 C100.67236389 36.30417664 99.86815002 36.29483093 99.03956604 36.28520203 C96.19888343 36.73356923 94.84327191 37.66012472 92.78126526 39.64164734 C92.07451502 42.90604946 92.07451502 42.90604946 91.90626526 46.70414734 C90.30861009 63.65056512 83.31066861 83.65700066 70.78126526 95.64164734 C56.36739456 105.48526635 29.70082657 104.3647977 12.90626526 102.07914734 C3.5708612 99.99640688 -5.65598901 95.52782759 -11.21873474 87.64164734 C-12.73045349 84.27445984 -12.73045349 84.27445984 -13.90623474 80.76664734 C-14.30197693 79.61422546 -14.69771912 78.46180359 -15.10545349 77.27445984 C-17.99079705 67.85912821 -19.02714263 58.82661151 -19.81053162 49.02055359 C-20.47400927 42.29265738 -21.04250135 38.18813127 -26.21873474 33.64164734 C-28.1355525 32.36495288 -28.1355525 32.36495288 -30.03123474 31.76664734 C-31.08310974 31.39539734 -32.13498474 31.02414734 -33.21873474 30.64164734 C-32.88873474 29.98164734 -32.55873474 29.32164734 -32.21873474 28.64164734 C-32.14807858 26.60109729 -32.13451498 24.55830477 -32.15623474 22.51664734 C-32.16525818 21.42094421 -32.17428162 20.32524109 -32.18357849 19.19633484 C-32.19518005 18.35328796 -32.20678162 17.51024109 -32.21873474 16.64164734 C-30.51717224 16.70738953 -30.51717224 16.70738953 -28.78123474 16.77445984 C-20.08181804 17.03554487 -20.08181804 17.03554487 -12.44920349 13.52445984 C-10.47579047 10.98128512 -8.84130497 8.4185017 -7.21873474 5.64164734 C-5.03573931 2.17932948 -4.08960781 0.81525388 0 0 Z " fill="#0D1E2F" transform="translate(294.21873474121094,252.3583526611328)"/>
<path d="M0 0 C0.70253906 0.71929687 1.40507812 1.43859375 2.12890625 2.1796875 C4.93481934 4.98264597 7.90178332 7.57509132 10.9375 10.125 C11.49961182 10.59873047 12.06172363 11.07246094 12.64086914 11.56054688 C17.82965117 15.90617873 23.13088786 20.0997778 28.4765625 24.25 C30.80508533 26.05836191 33.11022949 27.89091352 35.3984375 29.75 C48.06131582 39.98930878 61.54984013 48.49800062 76 56 C77.34146178 56.73533719 78.68121692 57.47379367 80.01953125 58.21484375 C89.43341721 63.38939965 98.85771674 67.48911021 109 71 C111.45894797 71.87327124 113.91730752 72.7482016 116.375 73.625 C118.07269531 74.22441406 118.07269531 74.22441406 119.8046875 74.8359375 C122.73758541 75.90440153 125.61733617 77.05390963 128.5 78.25 C131.98649532 79.67681657 135.22664243 80.60280447 139 81 C139 81.66 139 82.32 139 83 C140.27875 83.103125 141.5575 83.20625 142.875 83.3125 C155.86927918 84.79286092 155.86927918 84.79286092 159.8515625 88.91796875 C160.23054687 89.60503906 160.60953125 90.29210937 161 91 C160 94 160 94 158.33959961 94.93554688 C120.36584427 108.53302507 67.47630978 110.20370314 30.1875 92.75 C27.77159907 91.52615545 25.38401993 90.28147372 23 89 C22.33097656 88.65420898 21.66195312 88.30841797 20.97265625 87.95214844 C11.95378185 83.28735819 4.1155751 78.37407592 -3 71 C-3.58136719 70.40445313 -4.16273438 69.80890625 -4.76171875 69.1953125 C-8.11739995 65.52688519 -10.53202248 61.58052313 -12.83984375 57.1875 C-13.87912969 55.22790362 -15.00968022 53.37755773 -16.1875 51.5 C-18.31327302 47.39505899 -19.2201467 43.52520137 -20 39 C-19.33613281 38.443125 -18.67226563 37.88625 -17.98828125 37.3125 C-8.31989157 28.95675301 -4.5540765 22.48304891 -2 10 C-1.79375 9.01257813 -1.5875 8.02515625 -1.375 7.0078125 C-0.89913776 4.6747657 -0.44004857 2.34002296 0 0 Z " fill="#D6A47A" transform="translate(300,495)"/>
<path d="M0 0 C1.84732979 -0.00287018 1.84732979 -0.00287018 3.73197937 -0.00579834 C6.33165695 -0.0071563 8.9313414 -0.00348711 11.53100586 0.00488281 C15.48762451 0.01555998 19.44378628 0.00498806 23.40039062 -0.0078125 C25.93359474 -0.0064903 28.46679858 -0.00392666 31 0 C32.17323318 -0.00404846 33.34646637 -0.00809692 34.55525208 -0.01226807 C51.54887931 0.08357203 51.54887931 0.08357203 55.88227844 3.65130615 C61.07420802 9.72727025 60.38538913 15.44301787 60.38452148 23.00195312 C60.38667483 25.09787338 60.4047346 27.19323781 60.42382812 29.2890625 C60.5355322 55.80587713 60.5355322 55.80587713 52.82421875 65.140625 C51.95796875 65.841875 51.09171875 66.543125 50.19921875 67.265625 C49.54469727 67.79696045 48.89017578 68.3282959 48.21582031 68.87573242 C43.6445227 70.98194781 39.28254893 70.67391508 34.30859375 70.62890625 C33.24940735 70.62940475 32.19022095 70.62990326 31.09893799 70.63041687 C28.85972212 70.62807908 26.6205035 70.61836797 24.38134766 70.60180664 C20.97534315 70.57830526 17.57012704 70.58123719 14.1640625 70.58789062 C11.9830683 70.5823102 9.80207737 70.57519804 7.62109375 70.56640625 C6.61141541 70.56731766 5.60173706 70.56822906 4.5614624 70.56916809 C-4.31802145 70.48138602 -12.25975462 69.9953831 -18.8828125 63.63671875 C-27.75698245 52.66600356 -30.98401914 39.32165842 -31.23828125 25.515625 C-31.26075928 24.72325439 -31.2832373 23.93088379 -31.30639648 23.11450195 C-31.27915802 16.43968243 -29.39156351 11.39388889 -25.125 6.2421875 C-24.58488281 5.79617188 -24.04476563 5.35015625 -23.48828125 4.890625 C-22.95589844 4.42914063 -22.42351562 3.96765625 -21.875 3.4921875 C-15.08115866 -0.52526294 -7.6452824 -0.02624564 0 0 Z " fill="#D7A47A" transform="translate(455.80078125,272.734375)"/>
<path d="M0 0 C1.16859055 -0.01929062 2.33718109 -0.03858124 3.54118347 -0.05845642 C8.87606889 -0.11651665 14.21079691 -0.16575447 19.54589844 -0.19628906 C22.35398338 -0.21406535 25.16105707 -0.2488354 27.96875 -0.29882812 C32.03181636 -0.37105674 36.09380138 -0.39331351 40.1574707 -0.41235352 C41.40259933 -0.44018417 42.64772797 -0.46801483 43.93058777 -0.49668884 C52.11025222 -0.47752686 57.68369617 0.98416146 64.08325195 6.20874023 C69.00179874 11.18849708 70.46218441 15.30677466 70.64575195 22.33374023 C69.94038266 37.68318938 66.48087453 53.43425439 55.5480957 64.94702148 C48.71204126 70.83514304 40.14749719 70.38135694 31.64575195 70.44702148 C30.64745361 70.45509323 29.64915527 70.46316498 28.62060547 70.47148132 C26.51604931 70.48526918 24.41147129 70.49601486 22.30688477 70.50390625 C20.15772945 70.5154626 18.00860363 70.53597148 15.85961914 70.56542969 C12.746466 70.60807236 9.63416072 70.62426678 6.52075195 70.63452148 C5.08614624 70.66078362 5.08614624 70.66078362 3.62255859 70.68757629 C-2.0863635 70.66904208 -5.40245235 70.05556634 -9.91674805 66.20874023 C-19.7057728 55.90913686 -20.50825335 41.02879819 -20.54174805 27.58374023 C-20.55238281 26.29153564 -20.56301758 24.99933105 -20.57397461 23.66796875 C-20.44769244 15.16441579 -19.71397447 9.00596665 -13.47924805 2.77124023 C-9.19086922 0.1563751 -4.94022361 0.07654876 0 0 Z " fill="#D6A47A" transform="translate(304.916748046875,272.791259765625)"/>
<path d="M0 0 C1.08089905 0.0013797 2.1617981 0.0027594 3.27545166 0.00418091 C19.94355422 0.04358942 37.06872975 0.10624325 53.0625 5.4375 C54.8331167 5.48753312 56.60400853 5.52820694 58.375 5.5625 C62.41581021 5.91966924 64.72760886 6.33958713 67.5 9.375 C72.62903462 16.64484907 74.63179506 23.61342651 74.0625 32.4375 C65.33174387 34.434271 56.86485629 34.75482546 47.9375 34.6875 C47.24661285 34.6853952 46.55572571 34.68329041 45.84390259 34.68112183 C12.43735827 34.56245276 12.43735827 34.56245276 3.0625 31.4375 C-1.96322004 31.11870433 -6.96434422 31.39980258 -11.96435547 31.93701172 C-18.31846226 32.53432203 -24.62953905 32.58160685 -31.0078125 32.5703125 C-32.21065887 32.57126923 -33.41350525 32.57222595 -34.65280151 32.57321167 C-37.17218071 32.57388764 -39.69156172 32.57207436 -42.2109375 32.56787109 C-46.08597643 32.56246726 -49.96090191 32.56785982 -53.8359375 32.57421875 C-56.28906276 32.57355879 -58.74218794 32.57227932 -61.1953125 32.5703125 C-62.35870148 32.57233673 -63.52209045 32.57436096 -64.72073364 32.57644653 C-65.78629486 32.57329437 -66.85185608 32.57014221 -67.94970703 32.56689453 C-68.89137726 32.56609894 -69.83304749 32.56530334 -70.80325317 32.56448364 C-72.9375 32.4375 -72.9375 32.4375 -73.9375 31.4375 C-75.02029736 22.49110869 -72.33440439 16.55717942 -67.9375 9 C-61.46382887 3.47040591 -51.71708654 4.32082932 -43.54907227 3.79980469 C-39.9315431 3.43690242 -36.55668217 2.72747817 -33.01171875 1.9296875 C-22.0948719 -0.27659416 -11.09258889 -0.06083012 0 0 Z " fill="#252426" transform="translate(400.9375,399.5625)"/>
<path d="M0 0 C0.33 0.99 0.66 1.98 1 3 C1.85239258 2.84152588 2.70478516 2.68305176 3.58300781 2.51977539 C18.03923721 0.32076765 33.40759415 1.1878855 48 1 C48.76301674 0.99010796 49.52603348 0.98021591 50.31217194 0.97002411 C61.14984102 0.83191352 71.98732081 0.72856237 82.82574272 0.67336941 C87.54585565 0.64932883 92.26557784 0.61735819 96.98547363 0.56539917 C101.50836904 0.51639233 106.03075703 0.49212235 110.55390739 0.48610878 C112.24928132 0.47978516 113.94464674 0.46484066 115.63986397 0.44093895 C117.98357535 0.40946641 120.32532392 0.40913683 122.66918945 0.41650391 C123.70125834 0.39189166 123.70125834 0.39189166 124.75417709 0.36678219 C128.08427314 0.41034379 129.78780275 0.83419487 132.42979431 2.89857483 C134.6917055 7.36623684 134.52783693 11.26440238 134.45410156 16.20629883 C134.45468567 17.23115387 134.45526978 18.25600891 134.45587158 19.31192017 C134.45308846 22.69397031 134.42198448 26.07513536 134.390625 29.45703125 C134.38316345 31.80400613 134.37747011 34.15098724 134.37347412 36.49797058 C134.35821116 42.67126709 134.31892302 48.84418638 134.2746582 55.01733398 C134.23372016 61.31814471 134.2154662 67.61901646 134.1953125 73.91992188 C134.15242991 86.28011353 134.08417007 98.64002538 134 111 C134.61496338 111.14026611 135.22992676 111.28053223 135.86352539 111.42504883 C142.55118082 113.22477783 148.11684153 118.46944096 152 124 C154.48498217 129.34138517 154.89276978 134.19311479 154 140 C151.60788287 145.7282805 148.34047826 150.69398965 143 154 C142.47277344 154.36867188 141.94554687 154.73734375 141.40234375 155.1171875 C135.0565391 159.02437083 128.22973563 158.80330396 121 158 C113.08677733 156.08202789 108.96491159 149.72005993 104.83203125 143.140625 C102.67429782 137.58927327 102.91261661 130.08739214 104.875 124.515625 C108.80331832 117.84782153 114.90883177 112.968396 122 110 C122.66 110 123.32 110 124 110 C124.02312121 97.2396613 124.04091395 84.47932755 124.05181217 71.71897221 C124.05704149 65.79449285 124.06414001 59.87002778 124.07543945 53.94555664 C124.08626661 48.23327429 124.09227647 42.52100572 124.09487724 36.80871391 C124.0967318 34.62411723 124.100353 32.43952135 124.10573006 30.2549305 C124.11293821 27.20647651 124.11399104 24.15808021 124.11352539 21.10961914 C124.1189183 19.74045349 124.1189183 19.74045349 124.12442017 18.34362793 C124.52081658 14.35432545 124.52081658 14.35432545 123 11 C121.57849435 10.90188056 120.1521822 10.87201739 118.72729492 10.87060547 C117.81932663 10.86745331 116.91135834 10.86430115 115.97587585 10.86105347 C114.49314934 10.86408981 114.49314934 10.86408981 112.98046875 10.8671875 C111.46529411 10.86575241 111.46529411 10.86575241 109.91950989 10.86428833 C107.77666156 10.8636062 105.63381118 10.86546275 103.4909668 10.86962891 C100.21202935 10.87496012 96.93322993 10.8696936 93.65429688 10.86328125 C91.57552053 10.86394235 89.49674427 10.86522418 87.41796875 10.8671875 C86.4355571 10.86516327 85.45314545 10.86313904 84.44096375 10.86105347 C83.06482658 10.86578171 83.06482658 10.86578171 81.66088867 10.87060547 C80.85560226 10.87140106 80.05031586 10.87219666 79.22062683 10.87301636 C77.04145916 10.92032227 77.04145916 10.92032227 75.16737366 11.50099182 C72.01249038 12.2273606 68.88026746 12.13037394 65.66113281 12.11352539 C64.56297997 12.11374443 64.56297997 12.11374443 63.44264221 12.1139679 C61.02943938 12.11327276 58.6163143 12.10549908 56.203125 12.09765625 C54.52732383 12.09579065 52.85152212 12.09436742 51.17572021 12.09336853 C46.76986174 12.08955452 42.36403634 12.07973376 37.95819092 12.06866455 C33.46041308 12.05842643 28.96262989 12.05386576 24.46484375 12.04882812 C15.64321465 12.0381105 6.82161008 12.02104747 -2 12 C-1.34 8.04 -0.68 4.08 0 0 Z " fill="#204260" transform="translate(533,392)"/>
<path d="M0 0 C4.54292415 3.19456767 8.18127395 6.11472131 10.7109375 11.203125 C11.66818073 17.93832286 11.51349773 24.60823693 7.98828125 30.5546875 C5.13874255 34.23207383 1.56443965 36.63412357 -2.2890625 39.203125 C-3.6090625 39.203125 -4.9290625 39.203125 -6.2890625 39.203125 C-6.2890625 66.923125 -6.2890625 94.643125 -6.2890625 123.203125 C-6.9490625 123.203125 -7.6090625 123.203125 -8.2890625 123.203125 C-8.55164352 123.7910231 -8.81422455 124.3789212 -9.08476257 124.9846344 C-10.34961049 127.31466294 -11.68063266 128.83601013 -13.55786133 130.69897461 C-14.5544854 131.69537209 -14.5544854 131.69537209 -15.57124329 132.7118988 C-16.64779427 133.77296593 -16.64779427 133.77296593 -17.74609375 134.85546875 C-18.48607101 135.59261612 -19.22604828 136.32976349 -19.9884491 137.08924866 C-22.35483051 139.44444651 -24.72805772 141.79260817 -27.1015625 144.140625 C-28.68861005 145.71763716 -30.27520386 147.2951061 -31.86132812 148.87304688 C-35.41815382 152.40999851 -38.97687288 155.94498111 -42.54776001 159.46774292 C-43.63775134 160.55402829 -44.71766296 161.65063109 -45.78207397 162.76199341 C-48.62508037 165.72377564 -50.48407827 167.11308999 -54.69987488 167.32337952 C-55.65251724 167.32115891 -56.60515961 167.31893829 -57.58666992 167.31665039 C-58.66756393 167.31657486 -59.74845795 167.31649933 -60.86210632 167.31642151 C-62.02780655 167.31126022 -63.19350677 167.30609894 -64.39453125 167.30078125 C-65.58887283 167.2993663 -66.78321442 167.29795135 -68.01374817 167.29649353 C-71.83471158 167.2908885 -75.65561675 167.27833511 -79.4765625 167.265625 C-82.06445228 167.26061065 -84.65234298 167.25604763 -87.24023438 167.25195312 C-93.58986368 167.24091743 -99.93945893 167.22417436 -106.2890625 167.203125 C-107.60531444 164.57062112 -107.03719908 163.40133444 -106.3515625 160.578125 C-106.15691406 159.76085937 -105.96226562 158.94359375 -105.76171875 158.1015625 C-105.60574219 157.47507812 -105.44976563 156.84859375 -105.2890625 156.203125 C-104.9590625 156.863125 -104.6290625 157.523125 -104.2890625 158.203125 C-97.22288107 158.13623922 -90.15725794 158.04647823 -83.09155273 157.94067383 C-80.68699783 157.90738324 -78.28236399 157.87936433 -75.87768555 157.85668945 C-72.42462471 157.8232199 -68.97228989 157.77090703 -65.51953125 157.71484375 C-64.44132614 157.70845383 -63.36312103 157.7020639 -62.25224304 157.69548035 C-61.25143204 157.67568619 -60.25062103 157.65589203 -59.21948242 157.63549805 C-58.33789963 157.62439499 -57.45631683 157.61329193 -56.54801941 157.60185242 C-53.84053444 157.12395552 -53.08154964 156.2081326 -51.2890625 154.203125 C-50.6290625 154.203125 -49.9690625 154.203125 -49.2890625 154.203125 C-49.09771729 153.62780029 -48.90637207 153.05247559 -48.70922852 152.4597168 C-47.05313262 149.82824105 -45.17602533 148.76850301 -42.51448059 147.2441864 C-31.60962756 140.82618554 -21.7722023 132.2895557 -17.2890625 120.203125 C-14.1179057 106.50155804 -14.71264787 91.79825926 -14.9140625 77.828125 C-14.92765179 76.88495548 -14.94124107 75.94178596 -14.95524216 74.97003555 C-15.15156206 63.03512313 -15.6092392 51.11984134 -16.2890625 39.203125 C-17.23378418 39.06358398 -18.17850586 38.92404297 -19.15185547 38.78027344 C-24.91067464 37.72082997 -28.88001379 33.75669152 -32.7265625 29.515625 C-36.4117443 24.06155594 -36.07576406 17.53419943 -35.2890625 11.203125 C-33.79544676 7.95231427 -31.85522819 5.67014338 -29.2890625 3.203125 C-28.763125 2.68878906 -28.2371875 2.17445313 -27.6953125 1.64453125 C-20.46189882 -4.86923158 -8.21342803 -4.92112565 0 0 Z " fill="#204260" transform="translate(688.2890625,167.796875)"/>
<path d="M0 0 C3.04812475 1.30633918 4.14466532 2.16433065 5.625 5.125 C6.05078125 7.4765625 6.05078125 7.4765625 5.625 10.125 C3.74754048 11.92564039 2.05555849 13.29072661 -0.0625 14.75 C-1.26388565 15.62332895 -2.46304246 16.49973076 -3.66015625 17.37890625 C-4.27777832 17.8289502 -4.89540039 18.27899414 -5.53173828 18.74267578 C-8.4579845 20.93716666 -11.22774328 23.30332573 -14 25.6875 C-15.06867483 26.60195483 -16.13768292 27.51602034 -17.20703125 28.4296875 C-17.72861816 28.87538086 -18.25020508 29.32107422 -18.78759766 29.78027344 C-22.93162531 33.29077856 -27.15823044 36.7025718 -31.375 40.125 C-29.82654968 44.20384474 -26.91857768 46.45830978 -23.625 49.125 C-22.45122217 50.09432508 -21.27806733 51.06440495 -20.10546875 52.03515625 C-19.49493652 52.53805176 -18.8844043 53.04094727 -18.25537109 53.55908203 C-16.35508979 55.14158064 -14.48090326 56.75022128 -12.61328125 58.37109375 C-11.9987207 58.90412109 -11.38416016 59.43714844 -10.75097656 59.98632812 C-9.57278343 61.01034736 -8.39625288 62.03628376 -7.22167969 63.06445312 C-4.57722669 65.35163194 -1.97377555 67.43165724 0.9921875 69.2890625 C3.625 71.125 3.625 71.125 4.3125 74.0625 C3.40065075 78.12437394 1.95958123 79.67964043 -1.375 82.125 C-6.24684795 82.00860773 -9.11288137 79.16586863 -12.5625 76.0625 C-13.72040085 75.05099101 -14.87926329 74.04058176 -16.0390625 73.03125 C-16.60657227 72.53367187 -17.17408203 72.03609375 -17.75878906 71.5234375 C-19.93595852 69.63962683 -22.17818383 67.84655548 -24.4375 66.0625 C-28.1296443 63.13631108 -31.76220933 60.14869869 -35.375 57.125 C-43.8899113 49.41942963 -43.8899113 49.41942963 -53.375 43.125 C-52.52941558 38.39023281 -49.56562865 36.31063258 -46 33.375 C-45.36803711 32.84422852 -44.73607422 32.31345703 -44.08496094 31.76660156 C-39.52313516 27.97313171 -34.81582538 24.42925812 -29.9765625 20.99609375 C-24.65243314 17.16687759 -19.39845655 13.19780914 -14.8125 8.5 C-10.55999893 4.35653742 -6.11205973 0.22637258 0 0 Z " fill="#D6DBD2" transform="translate(357.375,662.875)"/>
<path d="M0 0 C3.84374252 0.5665632 5.42880721 2.41682558 8.203125 5.0859375 C9.1209375 5.95605469 10.03875 6.82617188 10.984375 7.72265625 C12.74957844 9.45996136 14.50661471 11.20561858 16.25390625 12.9609375 C22.50386388 19.18099103 29.17761868 24.87911932 36.09765625 30.3359375 C40.68090904 33.96405965 45.18599476 37.68855107 49.703125 41.3984375 C48.35061603 44.54193623 46.9974529 46.22957633 44.24609375 48.24609375 C43.55201416 48.76341064 42.85793457 49.28072754 42.14282227 49.8137207 C41.39959717 50.35730225 40.65637207 50.90088379 39.890625 51.4609375 C34.38612417 55.57202621 28.97707064 59.7327606 23.765625 64.2109375 C18.50121773 68.72641293 13.16878745 73.12808747 7.703125 77.3984375 C7.04441406 77.93855469 6.38570313 78.47867188 5.70703125 79.03515625 C3.06767233 81.1069111 1.36667288 82.38335687 -2.046875 82.4609375 C-4.81980579 81.15149796 -5.86565642 80.11022008 -7.296875 77.3984375 C-7.734375 75.0859375 -7.734375 75.0859375 -7.296875 72.3984375 C-5.39403164 70.40181331 -3.64152152 68.82153551 -1.484375 67.1484375 C-0.89414551 66.67100098 -0.30391602 66.19356445 0.30419922 65.70166016 C1.5160428 64.7230012 2.73287587 63.75048874 3.95458984 62.78417969 C6.44023537 60.8142657 8.88157164 58.79157848 11.328125 56.7734375 C14.14236404 54.46899434 16.96945941 52.189626 19.83203125 49.9453125 C21.34603516 48.74648438 21.34603516 48.74648438 22.890625 47.5234375 C23.81230469 46.80414062 24.73398437 46.08484375 25.68359375 45.34375 C26.35003906 44.70179688 27.01648438 44.05984375 27.703125 43.3984375 C28.04163601 40.35772802 28.04163601 40.35772802 26.04296875 38.59375 C25.25019531 37.91054688 24.45742188 37.22734375 23.640625 36.5234375 C22.73183594 35.73195313 21.82304687 34.94046875 20.88671875 34.125 C19.82560265 33.21605031 18.76439916 32.30720263 17.703125 31.3984375 C16.48495762 30.34458107 15.26754194 29.28985526 14.05078125 28.234375 C13.41986572 27.68765137 12.7889502 27.14092773 12.13891602 26.57763672 C10.84811522 25.45793337 9.55823843 24.33716392 8.26928711 23.21533203 C5.36645027 20.69135195 2.45663088 18.18421683 -0.515625 15.7421875 C-1.4334375 14.96875 -2.35125 14.1953125 -3.296875 13.3984375 C-4.10125 12.7384375 -4.905625 12.0784375 -5.734375 11.3984375 C-7.296875 9.3984375 -7.296875 9.3984375 -7.15625 6.79296875 C-5.81249947 3.04879115 -4.03668122 0.70024062 0 0 Z " fill="#D6DBD2" transform="translate(445.296875,662.6015625)"/>
<path d="M0 0 C3.5 0.25 3.5 0.25 5.5 2.25 C5.869253 9.24418411 3.60064875 15.37447708 0.75 21.625 C0.01669132 23.29416727 -0.7163822 24.96343789 -1.44921875 26.6328125 C-1.80419434 27.42848633 -2.15916992 28.22416016 -2.52490234 29.04394531 C-3.76084453 31.840133 -4.91458801 34.66669215 -6.0625 37.5 C-8.10598385 42.4220126 -10.35218548 47.23264099 -12.63085938 52.04956055 C-16.46371387 60.212843 -19.9459698 68.52807952 -23.46728516 76.82910156 C-24.37698011 78.96161578 -25.29883702 81.08793974 -26.23046875 83.2109375 C-29.27867545 90.18498368 -31.97510177 97.18504954 -34.421875 104.38671875 C-35.5 107.25 -35.5 107.25 -37.5 110.25 C-40.77337643 110.67696214 -42.85429678 110.53886723 -45.875 109.1875 C-48.3313465 106.25877918 -47.75059644 103.99501126 -47.5 100.25 C-46.4777832 96.8918457 -46.4777832 96.8918457 -45.05078125 93.42578125 C-44.79628708 92.79826462 -44.54179291 92.17074799 -44.27958679 91.5242157 C-43.46853339 89.53212246 -42.64090633 87.54743035 -41.8125 85.5625 C-41.27558495 84.25110404 -40.73976905 82.93925749 -40.20507812 81.62695312 C-39.15451664 79.05502886 -38.09548479 76.48689363 -37.02758789 73.92211914 C-36.03825473 71.54389315 -35.05525309 69.16301929 -34.07983398 66.77905273 C-33.64614502 65.72274658 -33.21245605 64.66644043 -32.765625 63.578125 C-32.38825195 62.65547852 -32.01087891 61.73283203 -31.62207031 60.78222656 C-30.52904791 58.31555373 -29.29812658 56.01548327 -27.9375 53.6875 C-25.60232994 49.64278176 -24.05230705 45.5240075 -22.51953125 41.12109375 C-19.3108216 32.08507232 -15.23167794 23.41863466 -11.140625 14.7578125 C-9.45974006 11.16392041 -7.86341338 7.54317658 -6.32421875 3.88671875 C-4.65250817 0.56706598 -3.74759996 0.26768571 0 0 Z " fill="#D4D9D1" transform="translate(420.5,648.75)"/>
<path d="M0 0 C1.95355659 -0.02406418 1.95355659 -0.02406418 3.94657898 -0.0486145 C4.66743683 -0.06380127 5.38829468 -0.07898804 6.1309967 -0.09463501 C8.51099996 -0.13698624 10.8892206 -0.14193072 13.26957703 -0.14285278 C14.92861664 -0.15638502 16.58764918 -0.17081269 18.24667358 -0.18609619 C21.72446147 -0.21151512 25.20162252 -0.21679129 28.67948914 -0.20974731 C33.12596011 -0.2036557 37.56902112 -0.26147263 42.01476765 -0.33640862 C45.4422705 -0.38462567 48.86895709 -0.39145176 52.29675865 -0.38675308 C53.93502381 -0.39079419 55.57332147 -0.40921597 57.21125221 -0.4425621 C69.99447554 -0.6761134 69.99447554 -0.6761134 74.25379944 2.6288147 C76.05119805 4.90247423 77.41680374 7.07919101 78.71879578 9.66183472 C79.67785828 11.17777222 79.67785828 11.17777222 80.65629578 12.72433472 C81.00692078 13.36370972 81.35754578 14.00308472 81.71879578 14.66183472 C80.71879578 15.66183472 80.71879578 15.66183472 77.96879578 15.91183472 C74.48921055 15.87689912 71.44903712 15.11761326 68.09379578 14.22433472 C59.73025288 12.21632668 51.47691762 11.92233198 42.91215515 11.73361206 C40.65015331 11.6827689 38.38841838 11.61933354 36.1269989 11.54708862 C11.11006258 10.60886701 11.11006258 10.60886701 -12.12886047 18.83370972 C-15.28120422 20.66183472 -15.28120422 20.66183472 -17.28120422 20.66183472 C-16.71652794 16.59425132 -14.57579567 14.30078796 -11.96870422 11.22433472 C-11.18882141 10.29749878 -10.4089386 9.37066284 -9.60542297 8.41574097 C-8.83843079 7.5069519 -8.0714386 6.59816284 -7.28120422 5.66183472 C-6.72234024 4.79468842 -6.16347626 3.92754211 -5.587677 3.03411865 C-3.28120422 0.66183472 -3.28120422 0.66183472 0 0 Z " fill="#252325" transform="translate(438.2812042236328,252.33816528320313)"/>
<path d="M0 0 C1.61469519 0.00155773 3.22939611 -0.00000284 4.84408569 -0.00453186 C8.21886768 -0.00426349 11.5914874 0.026849 14.96582031 0.08129883 C19.28526865 0.14947972 23.60157265 0.15096907 27.92141151 0.13074589 C31.25200229 0.12071037 34.58187923 0.1406428 37.91233444 0.17013359 C39.5046655 0.18165491 41.09707609 0.18514854 42.68944168 0.18037605 C44.91640175 0.17925965 47.13936543 0.21720708 49.36572266 0.26586914 C50.63034332 0.27969131 51.89496399 0.29351349 53.19790649 0.30775452 C57.83361983 1.39796883 58.79936707 3.25221866 61.5234375 7.08984375 C63.76239809 9.38772436 66.04458171 11.63034596 68.359375 13.8515625 C68.99101562 14.46644531 69.62265625 15.08132813 70.2734375 15.71484375 C71.16289062 16.56949219 71.16289062 16.56949219 72.0703125 17.44140625 C73.5234375 19.08984375 73.5234375 19.08984375 74.5234375 22.08984375 C67.49997346 20.40484229 60.81322476 17.87985576 54.17578125 15.0546875 C45.74890272 11.98923979 38.19703892 11.81169769 29.2734375 11.90234375 C27.93131655 11.91055882 26.5891941 11.91853196 25.24707031 11.92626953 C5.30718119 11.78637908 5.30718119 11.78637908 -14.35546875 14.61328125 C-18.02428678 15.43758291 -21.73763157 15.72801172 -25.4765625 16.08984375 C-22.07539415 1.35144758 -13.28423792 -0.25289819 0 0 Z " fill="#272527" transform="translate(307.4765625,251.91015625)"/>
<path d="M0 0 C3.96 0 7.92 0 12 0 C12 19.47 12 38.94 12 59 C8.04 59 4.08 59 0 59 C0 39.53 0 20.06 0 0 Z " fill="#0A2030" transform="translate(170,741)"/>
<path d="M0 0 C2.13671875 1.86328125 2.13671875 1.86328125 2.765625 4.7890625 C2.54148065 16.22042411 2.54148065 16.22042411 -1.86328125 20.86328125 C-7.24559199 25.70736091 -11.21058682 27.33815686 -18.39453125 27.1796875 C-23.26081086 26.55600293 -25.93982616 23.74056359 -29.36328125 20.48828125 C-30.86328125 17.86328125 -30.86328125 17.86328125 -30.48828125 15.05078125 C-24.16659583 2.65055215 -14.62032394 -5.80424866 0 0 Z " fill="#3A322F" transform="translate(474.86328125,286.13671875)"/>
<path d="M0 0 C5.07791414 3.77891285 10.15460158 9.14267241 12.6875 15 C12.6875 18.59541929 11.78339538 19.88218567 9.5 22.6875 C5.01203116 26.37760772 0.60801587 27.56087241 -5.23046875 27.37109375 C-10.7914908 26.37991721 -15.01213819 22.89066424 -18.3125 18.4375 C-21.10529901 13.45985822 -21.70216124 7.51777257 -20.3125 2 C-14.69277319 -2.7489223 -6.70027357 -2.0227241 0 0 Z " fill="#39322F" transform="translate(342.3125,286)"/>
<path d="M0 0 C3.63 0 7.26 0 11 0 C11 19.14 11 38.28 11 58 C7.37 58 3.74 58 0 58 C0 38.86 0 19.72 0 0 Z " fill="#091F2F" transform="translate(619,742)"/>
<path d="M0 0 C3.10039543 1.75494081 5.48825667 3.48825667 8 6 C8.7102871 12.03744039 7.39559562 15.18957288 4 20 C-0.13203714 22.60742805 -4.25201525 22.69524062 -9 22 C-12.47485838 19.92987161 -14.74352278 17.88365688 -16 14 C-16.64780445 9.74299933 -16.23937787 8.34576804 -13.75 4.75 C-9.24965594 0.24965594 -6.44743868 -0.66697641 0 0 Z " fill="#092030" transform="translate(666,515)"/>
<path d="M0 0 C2.77474463 1.49986196 4.4419593 2.68666645 6.3125 5.25 C6.87576014 8.62956087 7.0598095 10.9721578 5.2890625 14 C2.5967518 17.39394318 0.54694392 18.95709537 -3.7734375 19.5234375 C-8.1770784 19.71882088 -10.04367189 19.75684341 -13.625 16.9375 C-17.70117701 11.62611783 -17.70117701 11.62611783 -17.5625 7.8125 C-16.6150442 3.95500137 -15.79728733 2.62807267 -12.6875 0.25 C-8.33660495 -1.20029835 -4.42633458 -1.23525616 0 0 Z " fill="#092030" transform="translate(680.6875,177.75)"/>
<path d="M0 0 C4.07288166 2.1628865 7.73855093 4.73855093 11 8 C5.87170016 12.36855172 0.6839381 12.14331693 -5.8125 12.0625 C-6.50537109 12.05798828 -7.19824219 12.05347656 -7.91210938 12.04882812 C-9.60811068 12.03713156 -11.30406703 12.01919924 -13 12 C-13.33 11.01 -13.66 10.02 -14 9 C-14.99 8.67 -15.98 8.34 -17 8 C-15.71064081 6.85157077 -14.41843421 5.70633773 -13.125 4.5625 C-12.04605469 3.60537109 -12.04605469 3.60537109 -10.9453125 2.62890625 C-7.29253494 -0.42974484 -4.73874254 -0.52652695 0 0 Z " fill="#282627" transform="translate(422,382)"/>
<path d="M0 0 C3.1875 1.625 3.1875 1.625 5 4 C5.3125 7.25 5.3125 7.25 5 10 C1.90176359 11.54911821 -1.35233391 11.22564397 -4.75 11.25 C-5.45382812 11.270625 -6.15765625 11.29125 -6.8828125 11.3125 C-11.66885829 11.34808398 -14.79337218 10.51339398 -19 8 C-15.97415024 -0.47237933 -7.79756588 -1.1613396 0 0 Z " fill="#262426" transform="translate(390,383)"/>
<path d="M0 0 C24.09 0 48.18 0 73 0 C73.495 0.99 73.495 0.99 74 2 C49.58 2.33 25.16 2.66 0 3 C0 2.01 0 1.02 0 0 Z " fill="#1E1A19" transform="translate(291,253)"/>
<path d="M0 0 C-2.95810476 1.47905238 -5.9547155 1.12190903 -9.1953125 1.09765625 C-9.90275604 1.0962413 -10.61019958 1.09482635 -11.33908081 1.09336853 C-13.60109669 1.087766 -15.86301398 1.07521318 -18.125 1.0625 C-19.65755065 1.05748532 -21.19010286 1.05292236 -22.72265625 1.04882812 C-26.48180888 1.03779577 -30.24088772 1.02052952 -34 1 C-34.33 0.34 -34.66 -0.32 -35 -1 C-30.49807684 -1.19244514 -25.99589691 -1.37113658 -21.49291992 -1.53710938 C-19.96119563 -1.59550403 -18.42960967 -1.65765305 -16.89819336 -1.72363281 C-14.69670803 -1.81782927 -12.49507811 -1.89850637 -10.29296875 -1.9765625 C-9.60849167 -2.00875885 -8.92401459 -2.0409552 -8.21879578 -2.0741272 C-4.52700357 -2.19040732 -3.17289262 -2.11526175 0 0 Z " fill="#141528" transform="translate(418,277)"/>
<path d="M0 0 C1.65 0.33 3.3 0.66 5 1 C0 6 0 6 -1.625 7.4375 C-3.61598384 9.69998164 -4.67393647 12.29687051 -6 15 C-6.83422791 16.46983013 -7.6892029 17.92804147 -8.5625 19.375 C-8.97628906 20.06335938 -9.39007813 20.75171875 -9.81640625 21.4609375 C-10.20699219 21.96882813 -10.59757812 22.47671875 -11 23 C-11.66 23 -12.32 23 -13 23 C-11.67791593 18.60832469 -9.95666227 14.88299838 -7.625 10.9375 C-7.03976562 9.93589844 -6.45453125 8.93429688 -5.8515625 7.90234375 C-4.0629095 5.09861131 -2.127006 2.55334421 0 0 Z " fill="#D3A177" transform="translate(295,146)"/>
<path d="M0 0 C0.33 0 0.66 0 1 0 C1.6538198 7.06125389 -0.08825167 12.07177296 -4 18 C-4.99 18.66 -5.98 19.32 -7 20 C-6.67 16.04 -6.34 12.08 -6 8 C-5.01 8.33 -4.02 8.66 -3 9 C-2.67 8.34 -2.34 7.68 -2 7 C-1.67 7 -1.34 7 -1 7 C-0.67 4.69 -0.34 2.38 0 0 Z " fill="#201B1E" transform="translate(551,331)"/>
<path d="M0 0 C3.00500312 3.00500312 2.36831959 6.35339107 2.375 10.375 C2.39949219 11.14328125 2.42398438 11.9115625 2.44921875 12.703125 C2.47878321 18.39921026 2.47878321 18.39921026 -0.0234375 21.5390625 C-0.67570313 22.02117187 -1.32796875 22.50328125 -2 23 C-2.31918373 15.14453364 -1.35709504 7.73059495 0 0 Z " fill="#9D795B" transform="translate(543,333)"/>
<path d="M0 0 C0.33 0 0.66 0 1 0 C1.33 2.31 1.66 4.62 2 7 C22.295 7.495 22.295 7.495 43 8 C43 8.33 43 8.66 43 9 C28.81 9 14.62 9 0 9 C-1.53445094 5.93109813 -0.54984289 3.29905734 0 0 Z " fill="#977559" transform="translate(326,424)"/>
<path d="M0 0 C0.99 0 1.98 0 3 0 C3.10055982 10.05598201 3.09945892 19.98707052 2 30 C1.67 30 1.34 30 1 30 C-0.09945892 19.98707052 -0.10055982 10.05598201 0 0 Z " fill="#242934" transform="translate(516,287)"/>
<path d="M0 0 C0.33 0 0.66 0 1 0 C1.7938642 7.21805755 2.07875823 13.80827843 1 21 C0.67 21 0.34 21 0 21 C0 25.62 0 30.24 0 35 C-0.66 35 -1.32 35 -2 35 C-2.23209701 23.13726393 -1.81242503 11.73221561 0 0 Z " fill="#BE916C" transform="translate(556,270)"/>
<path d="M0 0 C0.33 0 0.66 0 1 0 C0.67 8.58 0.34 17.16 0 26 C-0.66 26 -1.32 26 -2 26 C-2.05814085 22.41673499 -2.09364357 18.83359162 -2.125 15.25 C-2.14175781 14.23421875 -2.15851563 13.2184375 -2.17578125 12.171875 C-2.18222656 11.1921875 -2.18867188 10.2125 -2.1953125 9.203125 C-2.20578613 8.30239258 -2.21625977 7.40166016 -2.22705078 6.47363281 C-1.98721676 3.86073144 -1.32312064 2.24335334 0 0 Z " fill="#C49671" transform="translate(214,291)"/>
<path d="M0 0 C9.41002278 -0.18451025 9.41002278 -0.18451025 14 1 C14 1.33 14 1.66 14 2 C6.81917746 3.12866889 -0.24205132 3.11434249 -7.5 3.0625 C-9.30597656 3.05573242 -9.30597656 3.05573242 -11.1484375 3.04882812 C-14.09901073 3.0371195 -17.04947859 3.02071995 -20 3 C-20 2.67 -20 2.34 -20 2 C-13.4 2 -6.8 2 0 2 C0 1.34 0 0.68 0 0 Z " fill="#10132A" transform="translate(482,352)"/>
<path d="M0 0 C0.33 0 0.66 0 1 0 C1 6.93 1 13.86 1 21 C1.66 21 2.32 21 3 21 C3.86516528 25.49885947 4.30903272 28.01647791 2 32 C0.10574697 24.84807616 -0.24602079 18.31511339 -0.125 10.9375 C-0.11597656 9.88111328 -0.10695312 8.82472656 -0.09765625 7.73632812 C-0.0743167 5.15730747 -0.04157775 2.5787801 0 0 Z " fill="#1F2430" transform="translate(210,296)"/>
<path d="M0 0 C0.66 0.66 1.32 1.32 2 2 C-1.3171411 3.4216319 -4.44219804 4.39009109 -8 5 C-8.33 6.32 -8.66 7.64 -9 9 C-9.66 9 -10.32 9 -11 9 C-10.67 6.36 -10.34 3.72 -10 1 C-8.37675914 0.77837671 -6.751279 0.57310197 -5.125 0.375 C-4.22007812 0.25898438 -3.31515625 0.14296875 -2.3828125 0.0234375 C-1.59648438 0.01570313 -0.81015625 0.00796875 0 0 Z " fill="#1C2030" transform="translate(546,376)"/>
<path d="M0 0 C-6.78743178 2.81552726 -12.68889006 3.3689719 -20 3 C-20 2.34 -20 1.68 -20 1 C-17.41765641 0.63667026 -14.83460218 0.28405133 -12.25 -0.0625 C-11.52039063 -0.16626953 -10.79078125 -0.27003906 -10.0390625 -0.37695312 C-6.3892704 -0.85806208 -3.52327086 -1.04532842 0 0 Z " fill="#C4966F" transform="translate(461,164)"/>
<path d="M0 0 C0.33 0 0.66 0 1 0 C0.63495936 5.66442374 -0.0554321 10.00703705 -3 15 C-3.99 15 -4.98 15 -6 15 C-5.19093245 12.68624595 -4.37793083 10.37401052 -3.5625 8.0625 C-3.33240234 7.40314453 -3.10230469 6.74378906 -2.86523438 6.06445312 C-1.11328125 1.11328125 -1.11328125 1.11328125 0 0 Z " fill="#222D3A" transform="translate(390,741)"/>
<path d="M0 0 C2.34293081 3.51439622 2.14659323 4.46077104 1.7578125 8.54296875 C1.66113281 9.61611328 1.56445312 10.68925781 1.46484375 11.79492188 C1.35269531 12.91447266 1.24054688 14.03402344 1.125 15.1875 C1.02058594 16.31865234 0.91617187 17.44980469 0.80859375 18.61523438 C0.54904762 21.41125407 0.27912734 24.20587835 0 27 C-0.33 27 -0.66 27 -1 27 C-1.02892385 22.87501462 -1.04677267 18.75005515 -1.0625 14.625 C-1.07087891 13.449375 -1.07925781 12.27375 -1.08789062 11.0625 C-1.09111328 9.94101562 -1.09433594 8.81953125 -1.09765625 7.6640625 C-1.10289307 6.62717285 -1.10812988 5.5902832 -1.11352539 4.52197266 C-1 2 -1 2 0 0 Z " fill="#0A102B" transform="translate(284,283)"/>
<path d="M0 0 C0.33 0 0.66 0 1 0 C2.33333333 5.33333333 3.66666667 10.66666667 5 16 C4.34 16.33 3.68 16.66 3 17 C0.15035942 10.92158211 -1.72805471 6.62420971 0 0 Z " fill="#1A1C2C" transform="translate(425,308)"/>
<path d="M0 0 C4.8288023 1.44864069 9.78694365 3.17453739 14 6 C14.33 6.99 14.66 7.98 15 9 C10.1711977 7.55135931 5.21305635 5.82546261 1 3 C0.67 2.01 0.34 1.02 0 0 Z " fill="#C99C76" transform="translate(316,578)"/>
<path d="M0 0 C3.80969888 1.49185111 5.45828792 3.60276511 7.75 6.9375 C8.36359375 7.81277344 8.9771875 8.68804687 9.609375 9.58984375 C11 12 11 12 11 15 C10.34 14.67 9.68 14.34 9 14 C9 13.34 9 12.68 9 12 C8.01 11.67 7.02 11.34 6 11 C3.77768563 7.43082843 1.81938863 3.79039298 0 0 Z " fill="#1C2031" transform="translate(219,345)"/>
<path d="M0 0 C5.59363406 4.06133537 10.85963514 8.3791401 16 13 C15.01 13.495 15.01 13.495 14 14 C13.49210937 13.55269531 12.98421875 13.10539063 12.4609375 12.64453125 C11.42839844 11.73767578 11.42839844 11.73767578 10.375 10.8125 C9.65054687 10.17570313 8.92609375 9.53890625 8.1796875 8.8828125 C6.31655028 7.2734359 4.42292127 5.7239969 2.5 4.1875 C1.675 3.465625 0.85 2.74375 0 2 C0 1.34 0 0.68 0 0 Z " fill="#E0E5DB" transform="translate(458,674)"/>
<path d="M0 0 C0.66 0.33 1.32 0.66 2 1 C1.04258894 2.60471728 0.08403595 4.20875329 -0.875 5.8125 C-1.40867187 6.70582031 -1.94234375 7.59914063 -2.4921875 8.51953125 C-3.61883092 10.37294724 -4.79686611 12.19529917 -6 14 C-6.875 12 -6.875 12 -7 9 C-5.05481217 5.72519011 -2.6965019 2.6965019 0 0 Z " fill="#342F2E" transform="translate(336,406)"/>
<path d="M0 0 C0.66 0.33 1.32 0.66 2 1 C0.68139111 5.61513112 -1.21355437 9.09897612 -4 13 C-4.66 12.01 -5.32 11.02 -6 10 C-4.02 6.7 -2.04 3.4 0 0 Z " fill="#1E1F2E" transform="translate(518,442)"/>
<path d="M0 0 C0.33 0 0.66 0 1 0 C1.22333047 2.54113858 1.42902091 5.08172584 1.625 7.625 C1.68945312 8.33785156 1.75390625 9.05070312 1.8203125 9.78515625 C2.15497142 14.34488399 1.78239103 17.68688582 0 22 C-0.33 22 -0.66 22 -1 22 C-0.67 14.74 -0.34 7.48 0 0 Z " fill="#060A23" transform="translate(586,299)"/>
<path d="M0 0 C2 2 2 2 2.1953125 4.1640625 C2.13020833 6.44270833 2.06510417 8.72135417 2 11 C-1.63 10.67 -5.26 10.34 -9 10 C-9 9.67 -9 9.34 -9 9 C-6.03 9 -3.06 9 0 9 C0 6.03 0 3.06 0 0 Z " fill="#DFAC7E" transform="translate(533,259)"/>
<path d="M0 0 C2.38642385 2.38642385 2.52003049 3.66778384 3.125 6.9375 C3.29257812 7.81277344 3.46015625 8.68804687 3.6328125 9.58984375 C4 12 4 12 4 15 C2 14 2 14 0.875 10.875 C0.02244801 7.09941262 -0.15729024 3.85361088 0 0 Z " fill="#BC845C" transform="translate(497,502)"/>
<path d="M0 0 C0.66 0 1.32 0 2 0 C2.95261487 4.76307437 3.08333357 9.1666528 3 14 C2.34 13.67 1.68 13.34 1 13 C0.5859375 10.05859375 0.5859375 10.05859375 0.375 6.4375 C0.30023438 5.23996094 0.22546875 4.04242188 0.1484375 2.80859375 C0.09945313 1.88175781 0.05046875 0.95492188 0 0 Z " fill="#14182B" transform="translate(416,304)"/>
<path d="M0 0 C0.33 0 0.66 0 1 0 C1.3152595 5.98993047 0.68219822 9.63560356 -2 15 C-2.66 14.34 -3.32 13.68 -4 13 C-3.625 9.875 -3.625 9.875 -3 7 C-2.34 7 -1.68 7 -1 7 C-0.67 4.69 -0.34 2.38 0 0 Z " fill="#131319" transform="translate(551,331)"/>
<path d="M0 0 C2.27477677 3.53854164 1.99082706 5.70947373 1.125 9.75 C0.92132813 10.73484375 0.71765625 11.7196875 0.5078125 12.734375 C0.34023438 13.48203125 0.17265625 14.2296875 0 15 C-0.66 14.67 -1.32 14.34 -2 14 C-1.43393721 9.30976546 -0.81462495 4.65499974 0 0 Z " fill="#C4956F" transform="translate(270,213)"/>
<path d="M0 0 C3.42931954 3.7559214 4.56429083 8.23466745 6 13 C3 12 3 12 1.796875 9.78515625 C1.27867187 8.43744141 1.27867187 8.43744141 0.75 7.0625 C0.39421875 6.16660156 0.0384375 5.27070313 -0.328125 4.34765625 C-1 2 -1 2 0 0 Z " fill="#C69870" transform="translate(515,163)"/>
<path d="M0 0 C0.33 0 0.66 0 1 0 C1.36263859 5.8022175 0.25684543 9.63999211 -2 15 C-3.39212184 12.21575632 -2.70702801 10.52973485 -2.125 7.5 C-1.94195312 6.5203125 -1.75890625 5.540625 -1.5703125 4.53125 C-1 2 -1 2 0 0 Z " fill="#0D112A" transform="translate(297,503)"/>
<path d="M0 0 C2.76544722 3.45680903 4.84921278 7.14341602 7 11 C6.01 11.495 6.01 11.495 5 12 C5 11.34 5 10.68 5 10 C4.01 9.67 3.02 9.34 2 9 C-0.04108797 5.99208089 -0.19878036 3.57804656 0 0 Z " fill="#1F2231" transform="translate(281,446)"/>
<path d="M0 0 C5.94 0.33 11.88 0.66 18 1 C18 1.33 18 1.66 18 2 C15.56305726 2.24878997 13.12761611 2.47463404 10.6875 2.6875 C9.65206055 2.79674805 9.65206055 2.79674805 8.59570312 2.90820312 C6.57421875 3.07421875 6.57421875 3.07421875 3 3 C2.01 2.01 1.02 1.02 0 0 Z " fill="#B28967" transform="translate(414,432)"/>
<path d="M0 0 C-1.32 0.33 -2.64 0.66 -4 1 C-4 1.66 -4 2.32 -4 3 C-10.625 4.25 -10.625 4.25 -14 2 C-9.15758367 0.66416101 -5.06562383 -0.25328119 0 0 Z " fill="#173049" transform="translate(448,594)"/>
<path d="M0 0 C0 0.66 0 1.32 0 2 C-3.3 2.33 -6.6 2.66 -10 3 C-10.33 2.34 -10.66 1.68 -11 1 C-7.32589215 -0.17571451 -3.83070817 -0.07366746 0 0 Z " fill="#C59770" transform="translate(365,401)"/>
<path d="M0 0 C1.125 1.5 1.125 1.5 2 4 C1.57598348 6.7773082 0.81108065 9.29639783 0 12 C-0.33 12 -0.66 12 -1 12 C-1.2226746 10.56465159 -1.42761906 9.12654475 -1.625 7.6875 C-1.74101562 6.88699219 -1.85703125 6.08648437 -1.9765625 5.26171875 C-2 3 -2 3 0 0 Z " fill="#4E4138" transform="translate(258,327)"/>
<path d="M0 0 C0.33 0 0.66 0 1 0 C1.33 3.96 1.66 7.92 2 12 C1.01 12.66 0.02 13.32 -1 14 C-1.027193 12.41676312 -1.04648306 10.83338938 -1.0625 9.25 C-1.07410156 8.36828125 -1.08570313 7.4865625 -1.09765625 6.578125 C-1.00826198 4.2181162 -0.66912821 2.25501476 0 0 Z " fill="#322B29" transform="translate(554,270)"/>
<path d="M0 0 C-0.99 0 -1.98 0 -3 0 C-3 0.66 -3 1.32 -3 2 C-7.62921525 3.0161692 -11.34462607 2.83796731 -16 2 C-16 1.67 -16 1.34 -16 1 C-14.0852312 0.63571223 -12.16807707 0.28394694 -10.25 -0.0625 C-9.18265625 -0.25972656 -8.1153125 -0.45695313 -7.015625 -0.66015625 C-4.25228095 -0.97156937 -2.59053383 -0.8991416 0 0 Z " fill="#B58B68" transform="translate(478,161)"/>
<path d="M0 0 C-0.38597015 2.79828356 -0.80136573 3.8205884 -2.9375 5.75 C-5 7 -5 7 -7 7 C-3.86206897 0 -3.86206897 0 0 0 Z " fill="#2F2929" transform="translate(456,288)"/>
<path d="M0 0 C0.99 0 1.98 0 3 0 C3 3.3 3 6.6 3 10 C2.67 10 2.34 10 2 10 C1.34 7.69 0.68 5.38 0 3 C-0.99 3.99 -1.98 4.98 -3 6 C-2.42655063 3.13275314 -2.1385485 2.1385485 0 0 Z " fill="#E5B081" transform="translate(532,287)"/>
<path d="M0 0 C0 0.66 0 1.32 0 2 C-2.20887947 3.34110539 -3.45469419 4.06609767 -6.0625 3.75 C-8 3 -8 3 -11 1 C-7.27569643 0.30710631 -3.78916254 -0.11144596 0 0 Z " fill="#C79871" transform="translate(475,432)"/>
<path d="M0 0 C0 0.66 0 1.32 0 2 C0.99 2.33 1.98 2.66 3 3 C-1.37934119 2.48041715 -5.68803391 1.94324258 -10 1 C-6.42181037 -1.33958553 -4.07775191 -0.9267618 0 0 Z " fill="#C39875" transform="translate(360,593)"/>
<path d="M0 0 C0.33 0 0.66 0 1 0 C1.25 7.625 1.25 7.625 -1 11 C-2.60080151 6.99799622 -1.29279692 3.95443764 0 0 Z M-2 11 C-2 14 -2 14 -2 14 Z " fill="#CD9F76" transform="translate(297,510)"/>
<path d="M0 0 C0.66 0.99 1.32 1.98 2 3 C0.68 5.31 -0.64 7.62 -2 10 C-2.66 10 -3.32 10 -4 10 C-2.8905928 6.51329166 -1.73662334 3.22515763 0 0 Z " fill="#C69770" transform="translate(286,159)"/>
<path d="M0 0 C1.29608947 0.93137592 2.58671632 1.8703566 3.875 2.8125 C4.59429687 3.33457031 5.31359375 3.85664062 6.0546875 4.39453125 C8 6 8 6 10 9 C5.57238086 7.60846256 3.0443745 5.47928514 0 2 C0 1.34 0 0.68 0 0 Z " fill="#D09365" transform="translate(504,522)"/>
<path d="M0 0 C4.29 0.33 8.58 0.66 13 1 C13 1.33 13 1.66 13 2 C9.37 2.33 5.74 2.66 2 3 C1.34 2.01 0.68 1.02 0 0 Z " fill="#3F342F" transform="translate(348,404)"/>
<path d="M0 0 C2 4 2 4 3 7 C2.0625 9.6875 2.0625 9.6875 1 12 C0.67 12 0.34 12 0 12 C0 8.04 0 4.08 0 0 Z " fill="#C1936D" transform="translate(540,352)"/>
<path d="M0 0 C0.66 0 1.32 0 2 0 C2.99 2.97 3.98 5.94 5 9 C3.68 8.67 2.36 8.34 1 8 C0.67 5.36 0.34 2.72 0 0 Z " fill="#CC9D75" transform="translate(419,325)"/>
<path d="M0 0 C0.99 0.33 1.98 0.66 3 1 C3.33 3.97 3.66 6.94 4 10 C3.34 9.67 2.68 9.34 2 9 C1.3671875 6.93359375 1.3671875 6.93359375 0.875 4.4375 C0.70742188 3.61121094 0.53984375 2.78492188 0.3671875 1.93359375 C0.24601563 1.29550781 0.12484375 0.65742188 0 0 Z " fill="#3A3431" transform="translate(539,315)"/>
<path d="M0 0 C0.33 0.66 0.66 1.32 1 2 C-2.07999946 5.67230705 -4.2482602 6.56802365 -9 7 C-8.1646875 6.38125 -8.1646875 6.38125 -7.3125 5.75 C-4.83804044 3.87743601 -2.4164771 1.94660656 0 0 Z " fill="#CE9D74" transform="translate(473,306)"/>
<path d="M0 0 C1.32 0 2.64 0 4 0 C4 0.66 4 1.32 4 2 C3.34 2 2.68 2 2 2 C2 4.64 2 7.28 2 10 C-0.09350689 6.5980513 -0.17942163 3.94727588 0 0 Z " fill="#DDAB7E" transform="translate(262,284)"/>
<path d="M0 0 C0.99 0.33 1.98 0.66 3 1 C0.36 2.98 -2.28 4.96 -5 7 C-5 6.01 -5 5.02 -5 4 C-2.6875 1.75 -2.6875 1.75 0 0 Z " fill="#DFE4DB" transform="translate(472,707)"/>
<path d="M0 0 C0.99 0.33 1.98 0.66 3 1 C-0.96 4.465 -0.96 4.465 -5 8 C-5 5 -5 5 -2.5 2.3125 C-1.675 1.549375 -0.85 0.78625 0 0 Z " fill="#E1E5DB" transform="translate(341,672)"/>
<path d="M0 0 C4.31392226 0.4793247 6.16569547 1.7457985 9 5 C8.67 5.66 8.34 6.32 8 7 C6.66382648 6.02471263 5.3311249 5.04466681 4 4.0625 C3.2575 3.51722656 2.515 2.97195313 1.75 2.41015625 C1.1725 1.94480469 0.595 1.47945312 0 1 C0 0.67 0 0.34 0 0 Z " fill="#E0E3DA" transform="translate(445,664)"/>
<path d="M0 0 C3.25543229 0.34879632 4.01873107 1.02133261 6.25 3.5625 C6.8275 4.366875 7.405 5.17125 8 6 C5 6 5 6 3.61328125 4.6875 C2.40885417 3.125 1.20442708 1.5625 0 0 Z " fill="#C59A75" transform="translate(296,564)"/>
<path d="M0 0 C0 0.66 0 1.32 0 2 C1.65 2 3.3 2 5 2 C5 2.33 5 2.66 5 3 C0.05 2.67 -4.9 2.34 -10 2 C-10 1.67 -10 1.34 -10 1 C-2.25 0 -2.25 0 0 0 Z " fill="#0F1C25" transform="translate(406,428)"/>
<path d="M0 0 C4.875 4.75 4.875 4.75 6 7 C5.34 7.66 4.68 8.32 4 9 C0 3.375 0 3.375 0 0 Z " fill="#373230" transform="translate(465,407)"/>
<path d="M0 0 C1.90401138 1.90401138 2.93520439 3.33425686 3.19921875 6.046875 C3.1886578 8.03233273 3.09915043 10.0169914 3 12 C2.67 12 2.34 12 2 12 C1.67 10.35 1.34 8.7 1 7 C0.67 7 0.34 7 0 7 C0 4.69 0 2.38 0 0 Z " fill="#C69771" transform="translate(535,298)"/>
<path d="M0 0 C0.66 0.33 1.32 0.66 2 1 C-0.75 5.875 -0.75 5.875 -3 7 C-3.66 6.34 -4.32 5.68 -5 5 C-3.35 3.35 -1.7 1.7 0 0 Z " fill="#C59973" transform="translate(224,274)"/>
<path d="M0 0 C0.66 0.99 1.32 1.98 2 3 C1.1875 4.9375 1.1875 4.9375 0 7 C-0.99 7.33 -1.98 7.66 -3 8 C-1.125 2.25 -1.125 2.25 0 0 Z " fill="#CAD0C8" transform="translate(411,660)"/>
<path d="M0 0 C0.88492145 2.47778006 1.11637742 3.66056586 0.25 6.1875 C-1 8 -1 8 -4 9 C-2.94124926 5.59687262 -1.99097846 2.98646769 0 0 Z " fill="#0F152A" transform="translate(578,342)"/>
<path d="M0 0 C0.99 0.66 1.98 1.32 3 2 C2.34 3.65 1.68 5.3 1 7 C0.01 7 -0.98 7 -2 7 C-1.34 4.69 -0.68 2.38 0 0 Z " fill="#C69870" transform="translate(551,339)"/>
<path d="M0 0 C2.60018816 3.90028225 2.15085514 7.47434569 2 12 C0.4375 10.5 0.4375 10.5 -1 8 C-0.96823234 5.22562457 -0.50364148 2.74713533 0 0 Z " fill="#A98668" transform="translate(274,303)"/>
<path d="M0 0 C2.32590854 3.63423209 2.16265833 6.77088331 2 11 C1.67 10.01 1.34 9.02 1 8 C0.34 8 -0.32 8 -1 8 C-0.67 5.36 -0.34 2.72 0 0 Z " fill="#39322F" transform="translate(539,303)"/>
<path d="M0 0 C-1.5 1.5625 -1.5 1.5625 -4 3 C-6.77437543 2.96823234 -9.25286467 2.50364148 -12 2 C-12 1.67 -12 1.34 -12 1 C-7.93631321 0.22596442 -4.13574827 -0.0984702 0 0 Z " fill="#10101A" transform="translate(367,403)"/>
<path d="M0 0 C-0.66 0.66 -1.32 1.32 -2 2 C-4.3828125 1.9765625 -4.3828125 1.9765625 -7.125 1.625 C-8.03507812 1.51414062 -8.94515625 1.40328125 -9.8828125 1.2890625 C-10.58148438 1.19367188 -11.28015625 1.09828125 -12 1 C-12 0.67 -12 0.34 -12 0 C-7.66726186 -0.92844389 -4.33273814 -0.92844389 0 0 Z " fill="#B98E6A" transform="translate(446,401)"/>
<path d="M0 0 C0.66 0.99 1.32 1.98 2 3 C0.625 5.5 0.625 5.5 -1 8 C-1.66 8 -2.32 8 -3 8 C-1.125 2.25 -1.125 2.25 0 0 Z " fill="#C49873" transform="translate(376,330)"/>
<path d="M0 0 C2.45823172 3.68734758 3.01242616 6.69699971 4 11 C3.01 10.67 2.02 10.34 1 10 C0.37542727 6.56484998 0 3.50935186 0 0 Z " fill="#AC8564" transform="translate(248,310)"/>
<path d="M0 0 C0.33 0 0.66 0 1 0 C2.42857143 8.42857143 2.42857143 8.42857143 0 13 C-0.33 13 -0.66 13 -1 13 C-0.67 8.71 -0.34 4.42 0 0 Z " fill="#40342F" transform="translate(533,233)"/>
<path d="M0 0 C0.33 0 0.66 0 1 0 C1.6875 3.3125 1.6875 3.3125 2 7 C0.5625 8.9375 0.5625 8.9375 -1 10 C-1.125 2.25 -1.125 2.25 0 0 Z " fill="#E4AE80" transform="translate(272,207)"/>
</svg>
